<mxfile host="drawio-plugin" modified="2024-01-17T08:46:30.589Z" agent="5.0 (Windows NT 6.2; Win64; x64) AppleWebKit/537.36 (KHTML, like Gecko) Chrome/104.0.5112.102 Safari/537.36" etag="1YDQFNGE_8eHK_ZWxX3B" version="20.5.3" type="embed"><diagram id="z7MANHeYrMKy0P0vsewf" name="Page-1"><mxGraphModel dx="1310" dy="804" grid="0" gridSize="10" guides="1" tooltips="1" connect="1" arrows="1" fold="1" page="0" pageScale="1" pageWidth="850" pageHeight="1100" math="0" shadow="0"><root><mxCell id="0"/><mxCell id="1" parent="0"/><mxCell id="38" style="edgeStyle=orthogonalEdgeStyle;rounded=0;orthogonalLoop=1;jettySize=auto;html=1;exitX=1;exitY=0.5;exitDx=0;exitDy=0;entryX=0;entryY=0.5;entryDx=0;entryDy=0;fontSize=12;" parent="1" source="32" target="33" edge="1"><mxGeometry relative="1" as="geometry"/></mxCell><mxCell id="32" value="&lt;b&gt;start programm&lt;/b&gt;" style="ellipse;whiteSpace=wrap;html=1;aspect=fixed;fillColor=#008a00;fontColor=#ffffff;strokeColor=#005700;" parent="1" vertex="1"><mxGeometry x="100" y="22" width="70" height="70" as="geometry"/></mxCell><mxCell id="61" style="edgeStyle=orthogonalEdgeStyle;rounded=0;orthogonalLoop=1;jettySize=auto;html=1;exitX=1;exitY=0.5;exitDx=0;exitDy=0;entryX=0;entryY=0.5;entryDx=0;entryDy=0;fontSize=12;" parent="1" source="33" target="60" edge="1"><mxGeometry relative="1" as="geometry"/></mxCell><mxCell id="33" value="&lt;font style=&quot;font-size: 12px;&quot;&gt;&lt;b&gt;initialize Stack&lt;/b&gt;&lt;/font&gt;" style="rounded=1;whiteSpace=wrap;html=1;fontColor=#ffffff;fillColor=#647687;strokeColor=#314354;" parent="1" vertex="1"><mxGeometry x="214" y="40" width="120" height="34" as="geometry"/></mxCell><mxCell id="42" style="edgeStyle=orthogonalEdgeStyle;rounded=0;orthogonalLoop=1;jettySize=auto;html=1;exitX=0;exitY=0.5;exitDx=0;exitDy=0;fontSize=12;entryX=1;entryY=0.456;entryDx=0;entryDy=0;entryPerimeter=0;" parent="1" source="35" target="41" edge="1"><mxGeometry relative="1" as="geometry"><mxPoint x="-1" y="311" as="targetPoint"/></mxGeometry></mxCell><mxCell id="100" style="edgeStyle=orthogonalEdgeStyle;rounded=0;orthogonalLoop=1;jettySize=auto;html=1;exitX=1;exitY=0.5;exitDx=0;exitDy=0;entryX=0;entryY=0.5;entryDx=0;entryDy=0;" edge="1" parent="1" source="35" target="92"><mxGeometry relative="1" as="geometry"/></mxCell><mxCell id="35" value="&lt;b&gt;&amp;nbsp; if char == ({[&amp;nbsp; &amp;nbsp; &amp;nbsp; &amp;nbsp; &amp;nbsp; &amp;nbsp; &amp;nbsp; &amp;nbsp; &amp;nbsp; &amp;nbsp; &amp;nbsp; &amp;nbsp; &amp;nbsp;if char == )}]&lt;/b&gt;" style="rhombus;whiteSpace=wrap;html=1;fillColor=#647687;" parent="1" vertex="1"><mxGeometry x="61" y="202" width="132" height="119" as="geometry"/></mxCell><mxCell id="101" style="edgeStyle=orthogonalEdgeStyle;rounded=0;orthogonalLoop=1;jettySize=auto;html=1;exitX=0.5;exitY=1;exitDx=0;exitDy=0;entryX=0.5;entryY=0;entryDx=0;entryDy=0;" edge="1" parent="1" source="36" target="35"><mxGeometry relative="1" as="geometry"/></mxCell><mxCell id="36" value="&lt;font size=&quot;1&quot; style=&quot;&quot;&gt;&lt;b style=&quot;font-size: 12px;&quot;&gt;itarate through characters&lt;/b&gt;&lt;/font&gt;" style="rounded=1;whiteSpace=wrap;html=1;fillColor=#647687;" parent="1" vertex="1"><mxGeometry x="71" y="140" width="120" height="38" as="geometry"/></mxCell><mxCell id="56" style="edgeStyle=orthogonalEdgeStyle;rounded=0;orthogonalLoop=1;jettySize=auto;html=1;exitX=1;exitY=0.5;exitDx=0;exitDy=0;entryX=0;entryY=0.5;entryDx=0;entryDy=0;fontSize=12;" parent="1" source="39" target="55" edge="1"><mxGeometry relative="1" as="geometry"/></mxCell><mxCell id="39" value="&lt;b&gt;&amp;nbsp; &amp;nbsp; &amp;nbsp; &amp;nbsp;if char )}] &amp;amp;&amp;amp;!=({[&amp;nbsp; &amp;nbsp; &amp;nbsp; &amp;nbsp; &amp;nbsp; &amp;nbsp; &amp;nbsp; &amp;nbsp; &amp;nbsp; &amp;nbsp; &amp;nbsp; &amp;nbsp; &amp;nbsp; &amp;nbsp; &amp;nbsp; &amp;nbsp; &amp;nbsp; &amp;nbsp; &amp;nbsp; &amp;nbsp; &amp;nbsp; &amp;nbsp; &amp;nbsp; &amp;nbsp;else&lt;/b&gt;" style="rhombus;whiteSpace=wrap;html=1;fillColor=#647687;" parent="1" vertex="1"><mxGeometry x="231" y="401" width="150" height="99" as="geometry"/></mxCell><mxCell id="41" value="&lt;b&gt;stack push&lt;/b&gt;" style="rounded=1;whiteSpace=wrap;html=1;fontSize=12;fillColor=#647687;" parent="1" vertex="1"><mxGeometry x="-88" y="295.5" width="84" height="34" as="geometry"/></mxCell><mxCell id="45" value="return false" style="shape=parallelogram;perimeter=parallelogramPerimeter;whiteSpace=wrap;html=1;fixedSize=1;fontSize=12;fillColor=#a20025;size=26.79998779296875;fontColor=#ffffff;strokeColor=#6F0000;" parent="1" vertex="1"><mxGeometry x="502" y="191" width="120" height="34" as="geometry"/></mxCell><mxCell id="55" value="return false" style="shape=parallelogram;perimeter=parallelogramPerimeter;whiteSpace=wrap;html=1;fixedSize=1;fontSize=12;fillColor=#a20025;size=26.79998779296875;fontColor=#ffffff;strokeColor=#6F0000;" parent="1" vertex="1"><mxGeometry x="444" y="433.5" width="120" height="34" as="geometry"/></mxCell><mxCell id="97" style="edgeStyle=orthogonalEdgeStyle;rounded=0;orthogonalLoop=1;jettySize=auto;html=1;exitX=0.5;exitY=1;exitDx=0;exitDy=0;entryX=0.5;entryY=0;entryDx=0;entryDy=0;" edge="1" parent="1" source="57" target="39"><mxGeometry relative="1" as="geometry"/></mxCell><mxCell id="57" value="char = stack.pop()" style="rounded=1;whiteSpace=wrap;html=1;fontSize=12;fillColor=#647687;" parent="1" vertex="1"><mxGeometry x="250" y="357" width="120" height="28" as="geometry"/></mxCell><mxCell id="62" style="edgeStyle=orthogonalEdgeStyle;rounded=0;orthogonalLoop=1;jettySize=auto;html=1;exitX=0.5;exitY=1;exitDx=0;exitDy=0;fontSize=12;" parent="1" source="60" edge="1"><mxGeometry relative="1" as="geometry"><mxPoint x="132" y="141" as="targetPoint"/><Array as="points"><mxPoint x="482" y="103"/><mxPoint x="132" y="103"/><mxPoint x="132" y="133"/></Array></mxGeometry></mxCell><mxCell id="60" value="&lt;b&gt;check brackets&lt;/b&gt;" style="rounded=1;whiteSpace=wrap;html=1;fontSize=12;fillColor=#647687;" parent="1" vertex="1"><mxGeometry x="426" y="40" width="112" height="34" as="geometry"/></mxCell><mxCell id="86" style="edgeStyle=orthogonalEdgeStyle;rounded=0;orthogonalLoop=1;jettySize=auto;html=1;exitX=0.25;exitY=1;exitDx=0;exitDy=0;fontSize=12;" parent="1" target="83" edge="1"><mxGeometry relative="1" as="geometry"><Array as="points"><mxPoint x="307" y="535"/><mxPoint x="307" y="535"/></Array><mxPoint x="306.5" y="500" as="sourcePoint"/></mxGeometry></mxCell><mxCell id="98" style="edgeStyle=orthogonalEdgeStyle;rounded=0;orthogonalLoop=1;jettySize=auto;html=1;exitX=0.5;exitY=1;exitDx=0;exitDy=0;entryX=0.5;entryY=0;entryDx=0;entryDy=0;" edge="1" parent="1" source="83" target="88"><mxGeometry relative="1" as="geometry"/></mxCell><mxCell id="83" value="&lt;b&gt;stack.isEmpty&lt;/b&gt;" style="rounded=1;whiteSpace=wrap;html=1;fontSize=12;fillColor=#647687;" parent="1" vertex="1"><mxGeometry x="248" y="546" width="120" height="38" as="geometry"/></mxCell><mxCell id="99" style="edgeStyle=orthogonalEdgeStyle;rounded=0;orthogonalLoop=1;jettySize=auto;html=1;exitX=0.5;exitY=1;exitDx=0;exitDy=0;" edge="1" parent="1" source="88" target="89"><mxGeometry relative="1" as="geometry"/></mxCell><mxCell id="88" value="return true" style="shape=parallelogram;perimeter=parallelogramPerimeter;whiteSpace=wrap;html=1;fixedSize=1;fontSize=12;fillColor=#008a00;fontColor=#ffffff;strokeColor=#005700;" parent="1" vertex="1"><mxGeometry x="267.5" y="614" width="85" height="28" as="geometry"/></mxCell><mxCell id="89" value="finish programm" style="ellipse;whiteSpace=wrap;html=1;aspect=fixed;fontSize=12;fillColor=#a20025;fontColor=#ffffff;strokeColor=#6F0000;" parent="1" vertex="1"><mxGeometry x="276" y="686" width="68" height="68" as="geometry"/></mxCell><mxCell id="93" style="edgeStyle=orthogonalEdgeStyle;rounded=0;orthogonalLoop=1;jettySize=auto;html=1;exitX=0.905;exitY=0.38;exitDx=0;exitDy=0;entryX=0;entryY=0.5;entryDx=0;entryDy=0;exitPerimeter=0;" edge="1" parent="1" source="92" target="45"><mxGeometry relative="1" as="geometry"/></mxCell><mxCell id="94" style="edgeStyle=orthogonalEdgeStyle;rounded=0;orthogonalLoop=1;jettySize=auto;html=1;exitX=0.5;exitY=1;exitDx=0;exitDy=0;entryX=0.445;entryY=0.007;entryDx=0;entryDy=0;entryPerimeter=0;" edge="1" parent="1" source="92" target="57"><mxGeometry relative="1" as="geometry"/></mxCell><mxCell id="92" value="&amp;nbsp; &amp;nbsp; &amp;nbsp; &amp;nbsp;if stack.isEmpty&amp;nbsp; &amp;nbsp; &amp;nbsp; &amp;nbsp; &amp;nbsp; &amp;nbsp; &amp;nbsp; &amp;nbsp; &amp;nbsp; &amp;nbsp; &amp;nbsp; &amp;nbsp; &amp;nbsp; &amp;nbsp; &amp;nbsp; &amp;nbsp; &amp;nbsp; &amp;nbsp; &amp;nbsp; &amp;nbsp; &amp;nbsp; &amp;nbsp; &amp;nbsp; &amp;nbsp; &amp;nbsp; &amp;nbsp; &amp;nbsp; &amp;nbsp; &amp;nbsp; &amp;nbsp; &amp;nbsp; &amp;nbsp; &amp;nbsp; &amp;nbsp; &amp;nbsp; &amp;nbsp; &amp;nbsp; &amp;nbsp; &amp;nbsp; &amp;nbsp; &amp;nbsp;else" style="rhombus;whiteSpace=wrap;html=1;fillColor=#647687;" vertex="1" parent="1"><mxGeometry x="236" y="203" width="132" height="119" as="geometry"/></mxCell></root></mxGraphModel></diagram></mxfile>